<svg width="1024" height="768" viewBox="0 0 1024 768" fill="none" xmlns="http://www.w3.org/2000/svg">
<path fill-rule="evenodd" clip-rule="evenodd" d="M448.995 335.473C439.894 342.07 441.343 355.051 444.083 364.482C448.117 378.369 456.152 391.224 465.318 402.305C481.579 421.963 509.184 444.036 534.63 426.778C557.29 411.408 571.584 380.395 576.518 354.272C578.043 346.199 580.074 334.17 572.909 328.101C562.317 319.13 543.632 320.762 530.845 321.917C522.424 322.677 514.299 325.258 505.977 324.047C486.642 321.229 465.123 323.781 448.995 335.473Z" fill="#FFE479"/>
<path fill-rule="evenodd" clip-rule="evenodd" d="M841.023 438.343C822.588 461.728 791.246 465.423 763.41 465.194C746.694 465.055 729.946 463.797 713.559 460.391C704.724 458.554 695.949 456.121 687.413 453.198C681.774 451.267 673.38 450.302 670.981 444.26C664.651 428.32 669.308 408.329 671.914 392.149C673.24 383.919 674.236 375.64 675.525 367.404C676.35 362.134 676.745 356.304 678.954 351.374C681.54 345.599 684.806 346.752 690.275 348.347C697.81 350.547 705.546 351.461 713.293 352.644C732.199 355.531 748.694 361.353 765.877 369.605C782.867 377.763 799.348 385.817 814.503 397.161C822.181 402.911 828.797 409.151 834.961 416.478C839.723 422.139 846.83 430.976 841.023 438.343ZM760.439 542.212C760.29 544.73 731.398 537.128 727.596 536.275C702.649 530.68 677.208 524.307 653.657 514.197C631.674 504.761 612.305 493.965 595.006 477.2C586.943 469.385 579.69 461.156 572.751 452.392C569.272 447.999 564.52 448.509 560.641 444.793C557.152 441.448 554.477 438.836 555.567 433.836C564.285 436.133 580.384 450.573 589.421 443.281C594.573 439.125 587.428 434.783 584.13 432.375C577.929 427.846 572.627 422.259 567.699 416.395C576.161 418.036 584.038 421.205 591.404 425.617C594.676 427.577 605.891 434.684 608.502 427.909C610.109 423.738 602.504 418.497 600.133 416.189C594.311 410.524 588.025 403.91 584.934 396.293C592.577 394.52 599.781 400.427 604.986 405.238C610.763 410.58 617.845 416.186 622.69 422.341C625.189 425.515 625.733 429.265 627.685 432.689C629.882 436.541 633.396 439.843 636.754 442.693C643.225 448.186 650.793 452.23 658.561 455.575C676.312 463.217 695.339 468.626 714.26 472.42C723.542 474.282 732.596 475.139 742.018 475.455C749.34 475.701 752.58 477.891 755.376 484.637C762.941 502.892 761.568 522.975 760.439 542.212ZM543.157 403.112C538.924 407.073 533.422 409.558 528.997 413.366C525.103 416.717 520.612 420.292 516.266 423.002C511.626 425.894 508.16 423.866 503.983 421.249C499.079 418.179 493.441 416.934 488.391 414.187C470.927 404.682 449.563 381.393 452.823 360.009C454.205 350.946 458.89 342.028 467.399 337.916C475.127 334.182 486.361 332.109 494.628 335.231C499.291 336.992 502.628 340.879 505.616 344.701C509.1 349.156 510.434 348.454 513.982 344.157C520.332 336.47 530.802 329.726 541.153 329.888C546.297 329.97 551.407 331.054 556.041 333.189C556.669 333.479 557.019 334.355 557.649 334.652C558.423 335.017 559.694 334.258 560.233 334.599C561.589 335.458 562.944 338.141 563.726 339.503C566.867 344.966 572.521 355.68 566.823 360.28C566.819 360.282 567.076 366.504 566.998 367.213C566.596 370.925 565.313 373.989 563.66 377.384C558.695 387.581 551.367 395.432 543.157 403.112ZM551.598 489.391C547.588 490.638 543.268 478.07 547.115 476.064C550.783 474.151 555.229 488.264 551.598 489.391ZM488.61 474.365C487.221 479.112 486.634 484.5 483.238 488.364C480.128 484.674 479.821 477.865 482.837 474.071C484.559 471.907 490.129 469.177 488.61 474.365ZM616.946 391.184C616.923 391.304 621.771 393.623 619.406 396.158C616.174 399.621 616.619 392.881 616.946 391.184ZM636.981 352.492C636.925 357.292 626.763 356.133 626.835 351.305C626.924 345.363 637.04 347.403 636.981 352.492ZM624.85 312.373C625.856 307.978 643.532 301.864 643.051 309.524C642.809 313.364 622.717 321.717 624.85 312.373ZM443.646 461.417C441.664 463.799 438.85 464.738 436.475 466.567C433.984 468.483 432.204 470.969 430.029 473.219C424.055 479.395 416.864 484.47 410.42 490.144C398.571 500.573 387.222 511.786 374.085 520.631C350.61 536.436 323.387 545.081 296.363 552.65C294.124 553.277 287.675 555.808 285.46 553.923C283.071 551.89 284.286 544.736 284.396 542.031C284.844 530.94 286.137 519.718 285.997 508.644C285.939 504.095 284.607 497.629 286.981 493.467C289.63 488.819 297.029 487.459 301.606 485.71C315.516 480.393 328.916 471.424 341.204 463.118C356.309 452.906 371.564 442.525 387.109 432.993C402.339 423.654 419.137 417.4 436.125 412.066C436.912 413.72 428.806 419.042 427.879 419.788C423.435 423.366 418.6 427.075 415.301 431.798C412.965 435.142 410.57 442.708 417.019 442.902C420.146 442.996 424.767 439.972 427.602 438.994C432.284 437.378 437.109 436.244 442.007 435.506C437.796 440.142 423.524 448.47 426.121 456.18C428.64 463.662 443.213 454.931 448.23 454.931C447.407 457.54 445.34 459.381 443.646 461.417ZM271.481 482.3C262.148 485.582 252.582 487.448 242.95 489.567C233.769 491.587 225.283 493.109 215.879 491.926C202.896 490.294 188.528 484.916 186.882 470.163C184.93 452.683 197.275 436.62 207.875 424.079C220.776 408.821 235.263 395.18 250.962 382.829C266.645 370.489 283.571 359.611 301.305 350.427C314.796 343.44 330.032 339.198 344.297 333.954C347.011 332.957 354.517 329.452 357.055 332.357C359.107 334.706 356.315 338.619 355.38 340.8C353.556 345.052 353.305 349.333 352.834 353.898C350.731 374.286 348.199 394.668 347.034 415.144C346.71 420.85 346.139 426.82 346.472 432.53C346.655 435.693 348.301 439.721 347.205 442.809C345.098 448.745 335.449 452.674 330.336 455.326C321.181 460.073 311.487 463.615 302.238 468.155C292.081 473.142 282.192 478.532 271.481 482.3ZM400.913 349.825C403.475 349.473 407.312 348.775 409.596 350.435C412.574 352.599 411.793 355.61 409.043 357.18C406.87 358.421 401.786 358.76 399.64 357.634C395.984 355.717 396.603 350.418 400.913 349.825ZM415.101 397.035C413.03 400.483 405.465 402.744 406.124 396.31C406.689 390.801 418.913 390.686 415.101 397.035ZM412.292 299.906C415.62 301.195 421.659 302.298 422.646 306.579C423.564 310.563 419.789 310.3 417.064 309.203C414.823 308.303 404.84 299.837 412.292 299.906ZM933.686 451.895C931.743 444.331 933.223 435.958 932.151 428.211C931.11 420.701 929.238 413.8 926.551 406.723C920.602 391.055 913.787 376.951 904.144 363.2C885.982 337.305 864.912 314.496 839.468 295.582C814.349 276.91 786.534 261.735 757.069 251.1C725.825 239.821 694.374 235.896 661.425 233.734C651.586 233.089 641.755 232.324 631.971 231.081C624.82 230.173 615.857 229.054 608.786 231.244C604.345 232.621 601.863 236.494 606.702 239.036C610.133 240.838 614.624 241.054 618.413 241.533C613.836 256.073 606.389 270.664 594.587 280.676C583.065 290.451 567.648 293.802 553.107 296.281C545.221 297.624 536.392 298.664 528.385 298.084C523.322 297.719 519.372 295.375 517.329 300.589C515.912 304.212 515.241 308.187 513.372 302.717C511.162 296.25 510.078 296.291 503.202 294.454C489.141 290.698 473.021 287.271 460.755 279.147C448.028 270.719 443.602 257.085 436.497 244.389C434.74 241.251 429.44 234.9 432.148 231.304C434.625 228.016 442.679 228.344 446.367 228.001C450.258 227.639 454.174 227.624 458.079 227.472C460.341 227.385 464.892 228.312 463.982 224.933C462.608 219.84 447.897 220.493 444.243 220.41C437.449 220.258 430.561 220.415 423.801 221.162C390.284 224.869 356.465 231.723 324.031 240.863C261.103 258.595 200.157 291.269 154.233 338.341C110.15 383.526 96.1841 458.717 123.284 516.41C137.368 546.394 167.932 558.711 197.56 568.659C213.188 573.905 229.737 578.01 246.349 577.02C254.321 576.544 261.885 574.397 269.661 572.781C273.051 572.075 276.91 570.95 280.393 571.234C283.03 571.449 285.562 573.869 288.035 572.583C289.79 571.67 290.554 569.05 292.699 567.934C295.274 566.595 298.396 566.111 301.178 565.436C308.909 563.558 316.395 560.512 323.953 558.015C331.767 555.432 339.142 552.106 346.64 548.744C350.426 547.045 359.187 540.141 361.655 545.188C362.779 547.492 362.301 551.936 362.574 554.352C363.054 558.578 363.618 562.795 364.235 567.003C365.593 576.267 367.219 585.493 368.885 594.708C371.893 611.333 375.768 627.249 382.248 642.889C387.422 655.376 391.964 669.53 401.572 679.464C405.766 683.8 411.489 685.751 417.504 684.389C424.347 682.838 427.753 676.623 431.906 671.598C441.046 660.539 456.134 652.066 470.067 649.015C487.129 645.28 503.748 650.743 520.033 655.387C537.26 660.299 554.797 664.979 571.705 670.883C587.461 676.386 604.474 684.513 621.562 683.806C636.463 683.19 650.381 671.062 661.128 661.817C671.921 652.533 685.417 638.938 700.937 640.033C708.644 640.575 715.666 644.293 723.173 645.804C731.414 647.464 740.182 647.699 748.562 648.318C758.964 649.085 782.237 646.373 786.085 633.859C786.656 632.002 786.66 628.179 784.208 627.436C781.952 626.754 780.801 629.39 778.664 629.27C774.317 629.025 770.921 621.446 768.533 618.511C758.896 606.666 745.676 597.831 734.862 587.13C722.651 575.048 712.226 560.409 703.025 545.971C707.185 544.89 711.673 546.686 715.698 547.539C720.59 548.575 725.357 549.827 730.178 551.154C735.49 552.617 740.879 553.623 746.271 554.738C750.294 555.568 755.634 555.819 759.265 557.837C762.435 559.599 764.205 561.491 768.14 562.002C772.142 562.522 776.251 562.084 780.272 562.057C791.146 561.983 801.998 561.781 812.821 560.632C851.065 556.569 891.604 540.392 914.601 508.289C920.856 499.557 925.895 489.884 929.079 479.619C931.564 471.604 935.849 460.31 933.686 451.895Z" fill="#FFF8E4"/>
<path fill-rule="evenodd" clip-rule="evenodd" d="M574.989 82.0083C585.039 82.1506 594.459 85.1308 603.824 88.5189C612.06 91.498 620.839 94.2542 627.498 100.2C639.476 110.897 642.596 128.608 644.556 143.76C647.001 162.668 638.865 178.532 632.017 195.638C625.613 211.637 613.858 224.598 599.886 234.474C592.565 239.647 584.475 242.77 576.011 245.508C567.413 248.289 559.086 252.014 549.887 252C535.917 251.98 518.033 245.345 512.082 231.582C509.373 225.315 512.011 224.19 517.432 227.596C525.297 232.537 532.879 237.869 542.07 240.061C559.894 244.313 581.242 237.726 596.871 229.034C612.494 220.345 622.983 207.291 629.993 191.038C637.065 174.64 639.813 158.482 637.085 140.805C634.775 125.824 630.176 112.14 616.677 104.008C587.534 86.455 548.269 87.8693 522.353 110.681C518.798 113.808 515.285 116.851 511.622 119.838C509.294 121.736 506.552 124.013 506.89 127.295C507.18 130.106 513.173 140.944 505.956 137.615C500.106 134.915 496.927 129.639 489.84 128.986C482.297 128.29 473.3 134.084 471.043 141.377C468.891 148.336 472.729 157.857 478.74 161.848C482.463 164.32 486.559 163.938 490.786 163.838C492.884 163.789 498.725 163.107 500.113 165.325C502.569 169.248 493.903 173.371 491.106 174.238C484.3 176.35 476.256 173.865 472.344 167.79C468.366 161.613 465.644 154.465 465.096 147.107C464.572 140.057 466.173 132.919 470.331 127.131C474.755 120.974 483.773 114.073 491.857 116.211C495.365 117.139 498.185 120.765 501.628 121.453C503.801 121.887 502.887 122.198 504.687 120.587C505.83 119.565 506.911 117.679 507.966 116.467C514.033 109.502 520.032 102.068 527.458 96.4923C540.773 86.4953 558.47 81.7736 574.989 82.0083ZM538.169 220.113C539.744 216.421 542.636 223.006 543.492 224.107C545.185 226.286 549.167 227.98 548.995 231.193C548.711 236.497 541.482 235.513 539.071 232.746C536.328 229.596 536.615 223.758 538.169 220.113ZM589.53 195C593.43 201.078 588.677 207.638 585.594 213.018C582.645 218.161 579.907 223.975 576.475 228.811C570.777 236.839 558.381 228.154 558.013 219.903C557.731 213.587 562.205 216.336 565.077 218.695C568.033 221.125 569.433 221.73 572.532 219.076C578.765 213.735 581.566 204.805 585.875 198.043C586.729 196.702 588.278 195.896 589.53 195ZM600.648 196.954C601.654 199.894 599.544 207.682 605.409 206.903C608.65 206.473 609.342 201.823 611.045 199.793C616.775 192.97 615.018 205.875 613.521 209.105C610.221 216.223 600.985 221.128 596.404 212.097C594.7 208.738 594.708 204.498 595.573 200.887C596.045 198.92 598.792 191.526 600.648 196.954ZM548.347 183.034C547.828 186.463 544.604 193.296 548.54 195.749C552.003 197.909 558.033 193.219 560.7 191.261C563.471 189.226 569.751 183.389 569.997 190.653C570.123 194.356 566.416 198.799 563.771 200.932C558.128 205.481 546.403 209.562 542.244 200.999C539.979 196.334 541.218 189.694 542.716 184.993C543.929 181.183 549.601 174.75 548.347 183.034ZM622.36 164.258C624.656 166.925 630.099 172.899 627.14 176.697C623.68 181.136 618.057 172.992 615.841 170.725C613.844 168.683 609.643 162.868 611.434 159.783C614.4 154.679 620.343 161.917 622.36 164.258ZM586.265 152.775C593.771 157.665 583.902 161.186 579.627 161.624C574.452 162.152 567.836 162.502 563.083 159.963C556.346 156.364 558.592 150.927 565.121 149.625C571.817 148.292 580.44 148.979 586.265 152.775ZM488.68 137.208C494.2 138.282 500.505 139.679 502.385 145.698C504.326 151.917 501.537 153.981 495.899 152.581C490.682 151.285 482.89 149.981 479.941 144.885C476.417 138.797 483.561 136.213 488.68 137.208Z" fill="#FFF8E4"/>
<path fill-rule="evenodd" clip-rule="evenodd" d="M184.946 270.85C183.094 276.833 173.718 280.8 169.042 284.437C152.688 297.16 136.707 310.407 121.922 324.927C114.248 332.464 108.439 341.581 101.784 349.963C100.161 352.008 97.2841 356.591 94.0995 356.16C90.6056 355.69 89.8992 349.672 90.0106 347.044C90.3923 338.082 98.5772 329.427 104.414 323.256C110.98 316.317 118 309.555 125.169 303.237C133.062 296.281 141.628 290.302 150.357 284.449C158.928 278.701 167.146 272.06 176.06 266.854C180.259 264.402 187.231 263.469 184.946 270.85ZM756.622 214.036C763.449 214.251 770.11 216.49 776.548 218.569C790.709 223.142 804.197 229.486 817.497 236.117C840.815 247.739 863.254 261.801 883.822 277.79C888.122 281.131 892.53 283.839 897.206 286.571C900.198 288.322 904.465 290.457 905.617 294.025C908.546 303.093 893.765 293.991 891.667 292.689L888.717 290.86C844.953 263.736 801.24 237.383 751.738 221.828C749.1 221 748.28 218.647 749.664 216.316C751.164 213.789 754.086 213.956 756.622 214.036ZM182.955 233.015C182.638 235.776 179.511 236.404 177.402 237.29C169.532 240.596 161.465 243.415 153.616 246.776C139.049 253.013 125.671 262.064 110.466 266.798C106.991 267.881 106.478 264.374 107.409 261.988C108.445 259.325 111.557 257.455 113.807 255.914C120.3 251.466 127.663 248.269 134.873 245.179C142.022 242.114 149.381 239.795 156.71 237.226C163.522 234.837 171.428 230.392 178.742 230.063L179.062 230.048C181.39 229.93 183.323 229.773 182.955 233.015ZM769.047 191.07C762.087 189.112 768.663 184.706 772.799 185.016C777.413 185.361 781.873 187.54 786.249 188.854C799.627 192.871 812.028 197.264 824.526 203.499C826.39 204.43 834.602 208.843 829.17 210.797C825.406 212.151 816.614 206.342 813.382 204.949C799.179 198.824 783.917 195.251 769.047 191.07Z" fill="#FFF8E4"/>
<path fill-rule="evenodd" clip-rule="evenodd" d="M491.608 205.331C492.478 202.779 503.238 174.877 499.026 174.036C494.565 173.143 488.602 189.332 487.308 192.257C482.529 203.059 479.699 214.649 477.482 226.236C475.937 234.304 474.58 242.569 475.121 250.817C475.537 257.156 478.155 258.116 482.469 262C482.469 242.746 485.395 223.555 491.608 205.331Z" fill="#FFF8E4"/>
</svg>
